<?xml version="1.0" encoding="UTF-8" standalone="no"?>
<svg
   version="1.1"
   viewBox="0 0 800 860"
   width="800"
   height="860"
   id="svg258"
   sodipodi:docname="backup.svg"
   inkscape:version="1.1.2 (0a00cf5339, 2022-02-04, custom)"
   xmlns:inkscape="http://www.inkscape.org/namespaces/inkscape"
   xmlns:sodipodi="http://sodipodi.sourceforge.net/DTD/sodipodi-0.dtd"
   xmlns="http://www.w3.org/2000/svg"
   xmlns:svg="http://www.w3.org/2000/svg">
  <sodipodi:namedview
     id="namedview260"
     pagecolor="#323232"
     bordercolor="#666666"
     borderopacity="1.0"
     inkscape:pageshadow="2"
     inkscape:pageopacity="0"
     inkscape:pagecheckerboard="0"
     showgrid="false"
     inkscape:zoom="0.67997361"
     inkscape:cx="550.02134"
     inkscape:cy="334.57181"
     inkscape:window-width="1920"
     inkscape:window-height="1018"
     inkscape:window-x="0"
     inkscape:window-y="0"
     inkscape:window-maximized="1"
     inkscape:current-layer="svg258" />
  <!-- svg-source:excalidraw -->
  <defs
     id="defs4">
    <style
       id="style2">
      @font-face {
        font-family: &quot;Virgil&quot;;
        src: url(&quot;https://excalidraw.com/Virgil.woff2&quot;);
      }
      @font-face {
        font-family: &quot;Cascadia&quot;;
        src: url(&quot;https://excalidraw.com/Cascadia.woff2&quot;);
      }
    </style>
  </defs>
  <g
     stroke-linecap="round"
     transform="translate(10 90) rotate(0 110 50)"
     id="g10"
     style="fill:#d7d7d7;fill-opacity:1;stroke:#ffffff;stroke-opacity:1;stroke-width:2.2;stroke-miterlimit:4;stroke-dasharray:none">
    <path
       d="M 0,0 C 73.333333,0 146.66667,0 220,0 M 0,0 c 73.333333,0 146.66667,0 220,0 m 0,0 c 0,33.333333 0,66.666667 0,100 M 220,0 c 0,33.333333 0,66.666667 0,100 m 0,0 c -73.33333,0 -146.666667,0 -220,0 m 220,0 c -73.33333,0 -146.666667,0 -220,0 m 0,0 C 0,66.666667 0,33.333333 0,0 M 0,100 C 0,66.666667 0,33.333333 0,0"
       stroke="#000000"
       stroke-width="1"
       fill="none"
       id="path8"
       style="fill:#d7d7d7;fill-opacity:1;stroke:#ffffff;stroke-opacity:1;stroke-width:2.2;stroke-miterlimit:4;stroke-dasharray:none" />
  </g>
  <g
     transform="translate(15 128.5) rotate(0 105 11.5)"
     id="g14"
     style="fill:#d7d7d7;fill-opacity:1;stroke:none;stroke-opacity:1">
    <text
       x="105"
       y="18"
       font-family="Helvetica, Segoe UI Emoji"
       font-size="20px"
       fill="#000000"
       text-anchor="middle"
       style="white-space:pre;fill:#d7d7d7;fill-opacity:1;stroke:none;stroke-opacity:1"
       direction="ltr"
       id="text12">/dev/nvme0n1p2</text>
  </g>
  <g
     stroke-linecap="round"
     transform="translate(10 550) rotate(0 110 50)"
     id="g18"
     style="fill:#d7d7d7;fill-opacity:1;stroke:#ffffff;stroke-opacity:1;stroke-width:2.2;stroke-miterlimit:4;stroke-dasharray:none">
    <path
       d="M 0,0 C 73.333333,0 146.66667,0 220,0 M 0,0 c 73.333333,0 146.66667,0 220,0 m 0,0 c 0,33.333333 0,66.666667 0,100 M 220,0 c 0,33.333333 0,66.666667 0,100 m 0,0 c -73.33333,0 -146.666667,0 -220,0 m 220,0 c -73.33333,0 -146.666667,0 -220,0 m 0,0 C 0,66.666667 0,33.333333 0,0 M 0,100 C 0,66.666667 0,33.333333 0,0"
       stroke="#000000"
       stroke-width="1"
       fill="none"
       id="path16"
       style="fill:#d7d7d7;fill-opacity:1;stroke:#ffffff;stroke-opacity:1;stroke-width:2.2;stroke-miterlimit:4;stroke-dasharray:none" />
  </g>
  <g
     transform="translate(15 588.5) rotate(0 105 11.5)"
     id="g22"
     style="fill:#d7d7d7;fill-opacity:1;stroke:none;stroke-opacity:1">
    <text
       x="105"
       y="18"
       font-family="Helvetica, Segoe UI Emoji"
       font-size="20px"
       fill="#000000"
       text-anchor="middle"
       style="white-space:pre;fill:#d7d7d7;fill-opacity:1;stroke:none;stroke-opacity:1"
       direction="ltr"
       id="text20">/dev/sda2</text>
  </g>
  <g
     stroke-linecap="round"
     transform="translate(290 90) rotate(0 70 30)"
     id="g26"
     style="fill:#d7d7d7;fill-opacity:1;stroke:#ffffff;stroke-opacity:1;stroke-width:2.2;stroke-miterlimit:4;stroke-dasharray:none">
    <path
       d="M 0,0 C 46.666667,0 93.333333,0 140,0 M 0,0 c 46.666667,0 93.333333,0 140,0 m 0,0 c 0,20 0,40 0,60 m 0,-60 c 0,20 0,40 0,60 m 0,0 C 93.333333,60 46.666667,60 0,60 m 140,0 C 93.333333,60 46.666667,60 0,60 m 0,0 C 0,40 0,20 0,0 M 0,60 C 0,40 0,20 0,0"
       stroke="#000000"
       stroke-width="1"
       fill="none"
       id="path24"
       style="fill:#d7d7d7;fill-opacity:1;stroke:#ffffff;stroke-opacity:1;stroke-width:2.2;stroke-miterlimit:4;stroke-dasharray:none" />
  </g>
  <g
     transform="translate(295 108.5) rotate(0 65 11.5)"
     id="g30"
     style="fill:#d7d7d7;fill-opacity:1;stroke:none;stroke-opacity:1">
    <text
       x="65"
       y="18"
       font-family="Helvetica, Segoe UI Emoji"
       font-size="20px"
       fill="#000000"
       text-anchor="middle"
       style="white-space:pre;fill:#d7d7d7;fill-opacity:1;stroke:none;stroke-opacity:1"
       direction="ltr"
       id="text28">@</text>
  </g>
  <g
     stroke-linecap="round"
     transform="translate(290 170) rotate(0 70 30)"
     id="g34"
     style="fill:#d7d7d7;fill-opacity:1;stroke:#ffffff;stroke-opacity:1;stroke-width:2.2;stroke-miterlimit:4;stroke-dasharray:none">
    <path
       d="M 0,0 C 46.666667,0 93.333333,0 140,0 M 0,0 c 46.666667,0 93.333333,0 140,0 m 0,0 c 0,20 0,40 0,60 m 0,-60 c 0,20 0,40 0,60 m 0,0 C 93.333333,60 46.666667,60 0,60 m 140,0 C 93.333333,60 46.666667,60 0,60 m 0,0 C 0,40 0,20 0,0 M 0,60 C 0,40 0,20 0,0"
       stroke="#000000"
       stroke-width="1"
       fill="none"
       id="path32"
       style="fill:#d7d7d7;fill-opacity:1;stroke:#ffffff;stroke-opacity:1;stroke-width:2.2;stroke-miterlimit:4;stroke-dasharray:none" />
  </g>
  <g
     transform="translate(295 188.5) rotate(0 65 11.5)"
     id="g38"
     style="fill:#d7d7d7;fill-opacity:1;stroke:none;stroke-opacity:1">
    <text
       x="65"
       y="18"
       font-family="Helvetica, Segoe UI Emoji"
       font-size="20px"
       fill="#000000"
       text-anchor="middle"
       style="white-space:pre;fill:#d7d7d7;fill-opacity:1;stroke:none;stroke-opacity:1"
       direction="ltr"
       id="text36">@home</text>
  </g>
  <g
     stroke-linecap="round"
     transform="translate(510 290) rotate(0 80 30)"
     id="g42"
     style="fill:#d7d7d7;fill-opacity:1;stroke:#ffffff;stroke-opacity:1;stroke-width:2.2;stroke-miterlimit:4;stroke-dasharray:none">
    <path
       d="M 0,0 C 53.333333,0 106.66667,0 160,0 M 0,0 c 53.333333,0 106.66667,0 160,0 m 0,0 c 0,20 0,40 0,60 m 0,-60 c 0,20 0,40 0,60 m 0,0 C 106.66667,60 53.333333,60 0,60 m 160,0 C 106.66667,60 53.333333,60 0,60 m 0,0 C 0,40 0,20 0,0 M 0,60 C 0,40 0,20 0,0"
       stroke="#000000"
       stroke-width="1"
       fill="none"
       id="path40"
       style="fill:#d7d7d7;fill-opacity:1;stroke:#ffffff;stroke-opacity:1;stroke-width:2.2;stroke-miterlimit:4;stroke-dasharray:none" />
  </g>
  <g
     transform="translate(515 297) rotate(0 75 23)"
     id="g48"
     style="fill:#d7d7d7;fill-opacity:1;stroke:none;stroke-opacity:1">
    <text
       x="0"
       y="18"
       font-family="Helvetica, Segoe UI Emoji"
       font-size="20px"
       fill="#000000"
       text-anchor="start"
       style="white-space:pre;fill:#d7d7d7;fill-opacity:1;stroke:none;stroke-opacity:1"
       direction="ltr"
       id="text44">@home snps 1</text>
    <text
       x="0"
       y="41"
       font-family="Helvetica, Segoe UI Emoji"
       font-size="20px"
       fill="#000000"
       text-anchor="start"
       style="white-space:pre;fill:#d7d7d7;fill-opacity:1;stroke:none;stroke-opacity:1"
       direction="ltr"
       id="text46">@ snpsh 1</text>
  </g>
  <g
     transform="translate(290 290) rotate(0 74 11.5)"
     id="g52"
     style="fill:#d7d7d7;fill-opacity:1;stroke:none;stroke-opacity:1">
    <text
       x="0"
       y="18"
       font-family="Helvetica, Segoe UI Emoji"
       font-size="20px"
       fill="#000000"
       text-anchor="start"
       style="white-space:pre;fill:#d7d7d7;fill-opacity:1;stroke:none;stroke-opacity:1"
       direction="ltr"
       id="text50">\btrbk-snapshots</text>
  </g>
  <g
     stroke-linecap="round"
     transform="translate(510 370) rotate(0 80 30)"
     id="g56"
     style="fill:#d7d7d7;fill-opacity:1;stroke:#ffffff;stroke-opacity:1;stroke-width:2.2;stroke-miterlimit:4;stroke-dasharray:none">
    <path
       d="M 0,0 C 53.333333,0 106.66667,0 160,0 M 0,0 c 53.333333,0 106.66667,0 160,0 m 0,0 c 0,20 0,40 0,60 m 0,-60 c 0,20 0,40 0,60 m 0,0 C 106.66667,60 53.333333,60 0,60 m 160,0 C 106.66667,60 53.333333,60 0,60 m 0,0 C 0,40 0,20 0,0 M 0,60 C 0,40 0,20 0,0"
       stroke="#000000"
       stroke-width="1"
       fill="none"
       id="path54"
       style="fill:#d7d7d7;fill-opacity:1;stroke:#ffffff;stroke-opacity:1;stroke-width:2.2;stroke-miterlimit:4;stroke-dasharray:none" />
  </g>
  <g
     transform="translate(515 377) rotate(0 75 23)"
     id="g62"
     style="fill:#d7d7d7;fill-opacity:1;stroke:none;stroke-opacity:1">
    <text
       x="0"
       y="18"
       font-family="Helvetica, Segoe UI Emoji"
       font-size="20px"
       fill="#000000"
       text-anchor="start"
       style="white-space:pre;fill:#d7d7d7;fill-opacity:1;stroke:none;stroke-opacity:1"
       direction="ltr"
       id="text58">@home snps 2</text>
    <text
       x="0"
       y="41"
       font-family="Helvetica, Segoe UI Emoji"
       font-size="20px"
       fill="#000000"
       text-anchor="start"
       style="white-space:pre;fill:#d7d7d7;fill-opacity:1;stroke:none;stroke-opacity:1"
       direction="ltr"
       id="text60">@ snpsh 2</text>
  </g>
  <g
     stroke-linecap="round"
     transform="translate(510 450) rotate(0 80 30)"
     id="g66"
     style="fill:#d7d7d7;fill-opacity:1;stroke:#ffffff;stroke-opacity:1;stroke-width:2.2;stroke-miterlimit:4;stroke-dasharray:none">
    <path
       d="M 0,0 C 53.333333,0 106.66667,0 160,0 M 0,0 c 53.333333,0 106.66667,0 160,0 m 0,0 c 0,20 0,40 0,60 m 0,-60 c 0,20 0,40 0,60 m 0,0 C 106.66667,60 53.333333,60 0,60 m 160,0 C 106.66667,60 53.333333,60 0,60 m 0,0 C 0,40 0,20 0,0 M 0,60 C 0,40 0,20 0,0"
       stroke="#000000"
       stroke-width="1"
       fill="none"
       id="path64"
       style="fill:#d7d7d7;fill-opacity:1;stroke:#ffffff;stroke-opacity:1;stroke-width:2.2;stroke-miterlimit:4;stroke-dasharray:none" />
  </g>
  <g
     transform="translate(515 457) rotate(0 75 23)"
     id="g72"
     style="fill:#d7d7d7;fill-opacity:1;stroke:none;stroke-opacity:1">
    <text
       x="0"
       y="18"
       font-family="Helvetica, Segoe UI Emoji"
       font-size="20px"
       fill="#000000"
       text-anchor="start"
       style="white-space:pre;fill:#d7d7d7;fill-opacity:1;stroke:none;stroke-opacity:1"
       direction="ltr"
       id="text68">@home snps n</text>
    <text
       x="0"
       y="41"
       font-family="Helvetica, Segoe UI Emoji"
       font-size="20px"
       fill="#000000"
       text-anchor="start"
       style="white-space:pre;fill:#d7d7d7;fill-opacity:1;stroke:none;stroke-opacity:1"
       direction="ltr"
       id="text70">@ snpsh n</text>
  </g>
  <g
     transform="translate(10 10) rotate(0 97.5 23)"
     id="g78"
     style="fill:#d7d7d7;fill-opacity:1;stroke:none;stroke-opacity:1">
    <text
       x="0"
       y="18"
       font-family="Helvetica, Segoe UI Emoji"
       font-size="20px"
       fill="#000000"
       text-anchor="start"
       style="white-space:pre;fill:#d7d7d7;fill-opacity:1;stroke:none;stroke-opacity:1"
       direction="ltr"
       id="text74">@     btrfs subvolume </text>
    <text
       x="0"
       y="41"
       font-family="Helvetica, Segoe UI Emoji"
       font-size="20px"
       fill="#000000"
       text-anchor="start"
       style="white-space:pre;fill:#d7d7d7;fill-opacity:1;stroke:none;stroke-opacity:1"
       direction="ltr"
       id="text76"> /      regular directory</text>
  </g>
  <g
     stroke-linecap="round"
     transform="translate(510 630) rotate(0 80 30)"
     id="g82"
     style="fill:#d7d7d7;fill-opacity:1;stroke:#ffffff;stroke-opacity:1;stroke-width:2.2;stroke-miterlimit:4;stroke-dasharray:none">
    <path
       d="M 0,0 C 53.333333,0 106.66667,0 160,0 M 0,0 c 53.333333,0 106.66667,0 160,0 m 0,0 c 0,20 0,40 0,60 m 0,-60 c 0,20 0,40 0,60 m 0,0 C 106.66667,60 53.333333,60 0,60 m 160,0 C 106.66667,60 53.333333,60 0,60 m 0,0 C 0,40 0,20 0,0 M 0,60 C 0,40 0,20 0,0"
       stroke="#000000"
       stroke-width="1"
       fill="none"
       id="path80"
       style="fill:#d7d7d7;fill-opacity:1;stroke:#ffffff;stroke-opacity:1;stroke-width:2.2;stroke-miterlimit:4;stroke-dasharray:none" />
  </g>
  <g
     transform="translate(515 637) rotate(0 75 23)"
     id="g88"
     style="fill:#d7d7d7;fill-opacity:1;stroke:none;stroke-opacity:1">
    <text
       x="0"
       y="18"
       font-family="Helvetica, Segoe UI Emoji"
       font-size="20px"
       fill="#000000"
       text-anchor="start"
       style="white-space:pre;fill:#d7d7d7;fill-opacity:1;stroke:none;stroke-opacity:1"
       direction="ltr"
       id="text84">@home bkup 1</text>
    <text
       x="0"
       y="41"
       font-family="Helvetica, Segoe UI Emoji"
       font-size="20px"
       fill="#000000"
       text-anchor="start"
       style="white-space:pre;fill:#d7d7d7;fill-opacity:1;stroke:none;stroke-opacity:1"
       direction="ltr"
       id="text86">@ bkup 1</text>
  </g>
  <g
     stroke-linecap="round"
     transform="translate(510 710) rotate(0 80 30)"
     id="g92"
     style="fill:#d7d7d7;fill-opacity:1;stroke:#ffffff;stroke-opacity:1;stroke-width:2.2;stroke-miterlimit:4;stroke-dasharray:none">
    <path
       d="M 0,0 C 53.333333,0 106.66667,0 160,0 M 0,0 c 53.333333,0 106.66667,0 160,0 m 0,0 c 0,20 0,40 0,60 m 0,-60 c 0,20 0,40 0,60 m 0,0 C 106.66667,60 53.333333,60 0,60 m 160,0 C 106.66667,60 53.333333,60 0,60 m 0,0 C 0,40 0,20 0,0 M 0,60 C 0,40 0,20 0,0"
       stroke="#000000"
       stroke-width="1"
       fill="none"
       id="path90"
       style="fill:#d7d7d7;fill-opacity:1;stroke:#ffffff;stroke-opacity:1;stroke-width:2.2;stroke-miterlimit:4;stroke-dasharray:none" />
  </g>
  <g
     transform="translate(515 717) rotate(0 75 23)"
     id="g98"
     style="fill:#d7d7d7;fill-opacity:1;stroke:none;stroke-opacity:1">
    <text
       x="0"
       y="18"
       font-family="Helvetica, Segoe UI Emoji"
       font-size="20px"
       fill="#000000"
       text-anchor="start"
       style="white-space:pre;fill:#d7d7d7;fill-opacity:1;stroke:none;stroke-opacity:1"
       direction="ltr"
       id="text94">@home bkup 2</text>
    <text
       x="0"
       y="41"
       font-family="Helvetica, Segoe UI Emoji"
       font-size="20px"
       fill="#000000"
       text-anchor="start"
       style="white-space:pre;fill:#d7d7d7;fill-opacity:1;stroke:none;stroke-opacity:1"
       direction="ltr"
       id="text96">@ bkup 2</text>
  </g>
  <g
     stroke-linecap="round"
     transform="translate(510 790) rotate(0 80 30)"
     id="g102"
     style="fill:#d7d7d7;fill-opacity:1;stroke:#ffffff;stroke-opacity:1;stroke-width:2.2;stroke-miterlimit:4;stroke-dasharray:none">
    <path
       d="M 0,0 C 53.333333,0 106.66667,0 160,0 M 0,0 c 53.333333,0 106.66667,0 160,0 m 0,0 c 0,20 0,40 0,60 m 0,-60 c 0,20 0,40 0,60 m 0,0 C 106.66667,60 53.333333,60 0,60 m 160,0 C 106.66667,60 53.333333,60 0,60 m 0,0 C 0,40 0,20 0,0 M 0,60 C 0,40 0,20 0,0"
       stroke="#000000"
       stroke-width="1"
       fill="none"
       id="path100"
       style="fill:#d7d7d7;fill-opacity:1;stroke:#ffffff;stroke-opacity:1;stroke-width:2.2;stroke-miterlimit:4;stroke-dasharray:none" />
  </g>
  <g
     transform="translate(515 797) rotate(0 75 23)"
     id="g108"
     style="fill:#d7d7d7;fill-opacity:1;stroke:none;stroke-opacity:1">
    <text
       x="0"
       y="18"
       font-family="Helvetica, Segoe UI Emoji"
       font-size="20px"
       fill="#000000"
       text-anchor="start"
       style="white-space:pre;fill:#d7d7d7;fill-opacity:1;stroke:none;stroke-opacity:1"
       direction="ltr"
       id="text104">@home bkup n</text>
    <text
       x="0"
       y="41"
       font-family="Helvetica, Segoe UI Emoji"
       font-size="20px"
       fill="#000000"
       text-anchor="start"
       style="white-space:pre;fill:#d7d7d7;fill-opacity:1;stroke:none;stroke-opacity:1"
       direction="ltr"
       id="text106">@ bkup n</text>
  </g>
  <g
     stroke-linecap="round"
     id="g114"
     style="fill:#d7d7d7;fill-opacity:1;stroke:#ffffff;stroke-opacity:1;stroke-width:2.2;stroke-miterlimit:4;stroke-dasharray:none">
    <g
       transform="translate(250 109.99999999999999) rotate(0 0 100.00000000000001)"
       id="g112"
       style="fill:#d7d7d7;fill-opacity:1;stroke:#ffffff;stroke-opacity:1;stroke-width:2.2;stroke-miterlimit:4;stroke-dasharray:none">
      <path
         d="M 0,0 C 0,66.666667 0,133.33333 0,200 M 0,0 c 0,66.666667 0,133.33333 0,200"
         stroke="#000000"
         stroke-width="1"
         fill="none"
         id="path110"
         style="fill:#d7d7d7;fill-opacity:1;stroke:#ffffff;stroke-opacity:1;stroke-width:2.2;stroke-miterlimit:4;stroke-dasharray:none" />
    </g>
  </g>
  <g
     stroke-linecap="round"
     id="g120"
     style="fill:#d7d7d7;fill-opacity:1;stroke:#ffffff;stroke-opacity:1;stroke-width:2.2;stroke-miterlimit:4;stroke-dasharray:none">
    <g
       transform="translate(230 110) rotate(0 30.000000000000004 0)"
       id="g118"
       style="fill:#d7d7d7;fill-opacity:1;stroke:#ffffff;stroke-opacity:1;stroke-width:2.2;stroke-miterlimit:4;stroke-dasharray:none">
      <path
         d="M 0,0 C 20,0 40,0 60,0 M 0,0 c 20,0 40,0 60,0"
         stroke="#000000"
         stroke-width="1"
         fill="none"
         id="path116"
         style="fill:#d7d7d7;fill-opacity:1;stroke:#ffffff;stroke-opacity:1;stroke-width:2.2;stroke-miterlimit:4;stroke-dasharray:none" />
    </g>
  </g>
  <g
     stroke-linecap="round"
     id="g126"
     style="fill:#d7d7d7;fill-opacity:1;stroke:#ffffff;stroke-opacity:1;stroke-width:2.2;stroke-miterlimit:4;stroke-dasharray:none">
    <g
       transform="translate(470 310) rotate(0 0 80.00000000000001)"
       id="g124"
       style="fill:#d7d7d7;fill-opacity:1;stroke:#ffffff;stroke-opacity:1;stroke-width:2.2;stroke-miterlimit:4;stroke-dasharray:none">
      <path
         d="M 0,0 C 0,53.333333 0,106.66667 0,160 M 0,0 c 0,53.333333 0,106.66667 0,160"
         stroke="#000000"
         stroke-width="1"
         fill="none"
         id="path122"
         style="fill:#d7d7d7;fill-opacity:1;stroke:#ffffff;stroke-opacity:1;stroke-width:2.2;stroke-miterlimit:4;stroke-dasharray:none" />
    </g>
  </g>
  <g
     stroke-linecap="round"
     id="g132"
     style="fill:#d7d7d7;fill-opacity:1;stroke:#ffffff;stroke-opacity:1;stroke-width:2.2;stroke-miterlimit:4;stroke-dasharray:none">
    <g
       transform="translate(450 310) rotate(0 30 0)"
       id="g130"
       style="fill:#d7d7d7;fill-opacity:1;stroke:#ffffff;stroke-opacity:1;stroke-width:2.2;stroke-miterlimit:4;stroke-dasharray:none">
      <path
         d="M 0,0 C 20,0 40,0 60,0 M 0,0 c 20,0 40,0 60,0"
         stroke="#000000"
         stroke-width="1"
         fill="none"
         id="path128"
         style="fill:#d7d7d7;fill-opacity:1;stroke:#ffffff;stroke-opacity:1;stroke-width:2.2;stroke-miterlimit:4;stroke-dasharray:none" />
    </g>
  </g>
  <g
     stroke-linecap="round"
     transform="translate(290 630) rotate(0 70 30)"
     id="g136"
     style="fill:#d7d7d7;fill-opacity:1;stroke:#ffffff;stroke-opacity:1;stroke-width:2.2;stroke-miterlimit:4;stroke-dasharray:none">
    <path
       d="M 0,0 C 46.666667,0 93.333333,0 140,0 M 0,0 c 46.666667,0 93.333333,0 140,0 m 0,0 c 0,20 0,40 0,60 m 0,-60 c 0,20 0,40 0,60 m 0,0 C 93.333333,60 46.666667,60 0,60 m 140,0 C 93.333333,60 46.666667,60 0,60 m 0,0 C 0,40 0,20 0,0 M 0,60 C 0,40 0,20 0,0"
       stroke="#000000"
       stroke-width="1"
       fill="none"
       id="path134"
       style="fill:#d7d7d7;fill-opacity:1;stroke:#ffffff;stroke-opacity:1;stroke-width:2.2;stroke-miterlimit:4;stroke-dasharray:none" />
  </g>
  <g
     transform="translate(295 648.5) rotate(0 65 11.5)"
     id="g140"
     style="fill:#d7d7d7;fill-opacity:1;stroke:none;stroke-opacity:1">
    <text
       x="65"
       y="18"
       font-family="Helvetica, Segoe UI Emoji"
       font-size="20px"
       fill="#000000"
       text-anchor="middle"
       style="white-space:pre;fill:#d7d7d7;fill-opacity:1;stroke:none;stroke-opacity:1"
       direction="ltr"
       id="text138">@backups</text>
  </g>
  <g
     stroke-linecap="round"
     transform="translate(290 550) rotate(0 70 30)"
     id="g144"
     style="fill:#d7d7d7;fill-opacity:1;stroke:#ffffff;stroke-opacity:1;stroke-width:2.2;stroke-miterlimit:4;stroke-dasharray:none">
    <path
       d="M 0,0 C 46.666667,0 93.333333,0 140,0 M 0,0 c 46.666667,0 93.333333,0 140,0 m 0,0 c 0,20 0,40 0,60 m 0,-60 c 0,20 0,40 0,60 m 0,0 C 93.333333,60 46.666667,60 0,60 m 140,0 C 93.333333,60 46.666667,60 0,60 m 0,0 C 0,40 0,20 0,0 M 0,60 C 0,40 0,20 0,0"
       stroke="#000000"
       stroke-width="1"
       fill="none"
       id="path142"
       style="fill:#d7d7d7;fill-opacity:1;stroke:#ffffff;stroke-opacity:1;stroke-width:2.2;stroke-miterlimit:4;stroke-dasharray:none" />
  </g>
  <g
     transform="translate(295 568.5) rotate(0 65 11.5)"
     id="g148"
     style="fill:#d7d7d7;fill-opacity:1;stroke:none;stroke-opacity:1">
    <text
       x="65"
       y="18"
       font-family="Helvetica, Segoe UI Emoji"
       font-size="20px"
       fill="#000000"
       text-anchor="middle"
       style="white-space:pre;fill:#d7d7d7;fill-opacity:1;stroke:none;stroke-opacity:1"
       direction="ltr"
       id="text146">@data</text>
  </g>
  <g
     stroke-linecap="round"
     id="g154"
     style="fill:#d7d7d7;fill-opacity:1;stroke:#ffffff;stroke-opacity:1;stroke-width:2.2;stroke-miterlimit:4;stroke-dasharray:none">
    <g
       transform="translate(470 390) rotate(0 20 0)"
       id="g152"
       style="fill:#d7d7d7;fill-opacity:1;stroke:#ffffff;stroke-opacity:1;stroke-width:2.2;stroke-miterlimit:4;stroke-dasharray:none">
      <path
         d="M 0,0 C 13.333333,0 26.666667,0 40,0 M 0,0 c 13.333333,0 26.666667,0 40,0"
         stroke="#000000"
         stroke-width="1"
         fill="none"
         id="path150"
         style="fill:#d7d7d7;fill-opacity:1;stroke:#ffffff;stroke-opacity:1;stroke-width:2.2;stroke-miterlimit:4;stroke-dasharray:none" />
    </g>
  </g>
  <g
     stroke-linecap="round"
     id="g160"
     style="fill:#d7d7d7;fill-opacity:1;stroke:#ffffff;stroke-opacity:1;stroke-width:2.2;stroke-miterlimit:4;stroke-dasharray:none">
    <g
       transform="translate(470 470) rotate(0 20 0)"
       id="g158"
       style="fill:#d7d7d7;fill-opacity:1;stroke:#ffffff;stroke-opacity:1;stroke-width:2.2;stroke-miterlimit:4;stroke-dasharray:none">
      <path
         d="M 0,0 C 13.333333,0 26.666667,0 40,0 M 0,0 c 13.333333,0 26.666667,0 40,0"
         stroke="#000000"
         stroke-width="1"
         fill="none"
         id="path156"
         style="fill:#d7d7d7;fill-opacity:1;stroke:#ffffff;stroke-opacity:1;stroke-width:2.2;stroke-miterlimit:4;stroke-dasharray:none" />
    </g>
  </g>
  <g
     stroke-linecap="round"
     id="g166"
     style="fill:#d7d7d7;fill-opacity:1;stroke:#ffffff;stroke-opacity:1;stroke-width:2.2;stroke-miterlimit:4;stroke-dasharray:none">
    <g
       transform="translate(250 190) rotate(0 20.000000000000004 0)"
       id="g164"
       style="fill:#d7d7d7;fill-opacity:1;stroke:#ffffff;stroke-opacity:1;stroke-width:2.2;stroke-miterlimit:4;stroke-dasharray:none">
      <path
         d="M 0,0 C 13.333333,0 26.666667,0 40,0 M 0,0 c 13.333333,0 26.666667,0 40,0"
         stroke="#000000"
         stroke-width="1"
         fill="none"
         id="path162"
         style="fill:#d7d7d7;fill-opacity:1;stroke:#ffffff;stroke-opacity:1;stroke-width:2.2;stroke-miterlimit:4;stroke-dasharray:none" />
    </g>
  </g>
  <g
     stroke-linecap="round"
     id="g172"
     style="fill:#d7d7d7;fill-opacity:1;stroke:#ffffff;stroke-opacity:1;stroke-width:2.2;stroke-miterlimit:4;stroke-dasharray:none">
    <g
       transform="translate(250 310) rotate(0 10.000000000000002 0)"
       id="g170"
       style="fill:#d7d7d7;fill-opacity:1;stroke:#ffffff;stroke-opacity:1;stroke-width:2.2;stroke-miterlimit:4;stroke-dasharray:none">
      <path
         d="M 0,0 C 6.6666667,0 13.333333,0 20,0 M 0,0 c 6.6666667,0 13.333333,0 20,0"
         stroke="#000000"
         stroke-width="1"
         fill="none"
         id="path168"
         style="fill:#d7d7d7;fill-opacity:1;stroke:#ffffff;stroke-opacity:1;stroke-width:2.2;stroke-miterlimit:4;stroke-dasharray:none" />
    </g>
  </g>
  <g
     transform="translate(250 10) rotate(0 73 23)"
     id="g178"
     style="fill:#d7d7d7;fill-opacity:1;stroke:none;stroke-opacity:1">
    <text
       x="0"
       y="18"
       font-family="Helvetica, Segoe UI Emoji"
       font-size="20px"
       fill="#000000"
       text-anchor="start"
       style="white-space:pre;fill:#d7d7d7;fill-opacity:1;stroke:none;stroke-opacity:1"
       direction="ltr"
       id="text174">snpsh: snapshot</text>
    <text
       x="0"
       y="41"
       font-family="Helvetica, Segoe UI Emoji"
       font-size="20px"
       fill="#000000"
       text-anchor="start"
       style="white-space:pre;fill:#d7d7d7;fill-opacity:1;stroke:none;stroke-opacity:1"
       direction="ltr"
       id="text176">bkup: backup</text>
  </g>
  <g
     stroke-linecap="round"
     id="g184"
     style="fill:#d7d7d7;fill-opacity:1;stroke:#ffffff;stroke-opacity:1;stroke-width:2.2;stroke-miterlimit:4;stroke-dasharray:none">
    <g
       transform="translate(250 570) rotate(0 0 40)"
       id="g182"
       style="fill:#d7d7d7;fill-opacity:1;stroke:#ffffff;stroke-opacity:1;stroke-width:2.2;stroke-miterlimit:4;stroke-dasharray:none">
      <path
         d="M 0,0 C 0,26.666667 0,53.333333 0,80 M 0,0 c 0,26.666667 0,53.333333 0,80"
         stroke="#000000"
         stroke-width="1"
         fill="none"
         id="path180"
         style="fill:#d7d7d7;fill-opacity:1;stroke:#ffffff;stroke-opacity:1;stroke-width:2.2;stroke-miterlimit:4;stroke-dasharray:none" />
    </g>
  </g>
  <g
     stroke-linecap="round"
     id="g190"
     style="fill:#d7d7d7;fill-opacity:1;stroke:#ffffff;stroke-opacity:1;stroke-width:2.2;stroke-miterlimit:4;stroke-dasharray:none">
    <g
       transform="translate(230 570) rotate(0 30.000000000000004 0)"
       id="g188"
       style="fill:#d7d7d7;fill-opacity:1;stroke:#ffffff;stroke-opacity:1;stroke-width:2.2;stroke-miterlimit:4;stroke-dasharray:none">
      <path
         d="M 0,0 C 20,0 40,0 60,0 M 0,0 c 20,0 40,0 60,0"
         stroke="#000000"
         stroke-width="1"
         fill="none"
         id="path186"
         style="fill:#d7d7d7;fill-opacity:1;stroke:#ffffff;stroke-opacity:1;stroke-width:2.2;stroke-miterlimit:4;stroke-dasharray:none" />
    </g>
  </g>
  <g
     stroke-linecap="round"
     id="g196"
     style="fill:#d7d7d7;fill-opacity:1;stroke:#ffffff;stroke-opacity:1;stroke-width:2.2;stroke-miterlimit:4;stroke-dasharray:none">
    <g
       transform="translate(250 650) rotate(0 20.000000000000004 0)"
       id="g194"
       style="fill:#d7d7d7;fill-opacity:1;stroke:#ffffff;stroke-opacity:1;stroke-width:2.2;stroke-miterlimit:4;stroke-dasharray:none">
      <path
         d="M 0,0 C 13.333333,0 26.666667,0 40,0 M 0,0 c 13.333333,0 26.666667,0 40,0"
         stroke="#000000"
         stroke-width="1"
         fill="none"
         id="path192"
         style="fill:#d7d7d7;fill-opacity:1;stroke:#ffffff;stroke-opacity:1;stroke-width:2.2;stroke-miterlimit:4;stroke-dasharray:none" />
    </g>
  </g>
  <g
     stroke-linecap="round"
     id="g202"
     style="fill:#d7d7d7;fill-opacity:1;stroke:#ffffff;stroke-opacity:1;stroke-width:2.2;stroke-miterlimit:4;stroke-dasharray:none">
    <g
       transform="translate(470 650) rotate(0 0 80)"
       id="g200"
       style="fill:#d7d7d7;fill-opacity:1;stroke:#ffffff;stroke-opacity:1;stroke-width:2.2;stroke-miterlimit:4;stroke-dasharray:none">
      <path
         d="M 0,0 C 0,53.333333 0,106.66667 0,160 M 0,0 c 0,53.333333 0,106.66667 0,160"
         stroke="#000000"
         stroke-width="1"
         fill="none"
         id="path198"
         style="fill:#d7d7d7;fill-opacity:1;stroke:#ffffff;stroke-opacity:1;stroke-width:2.2;stroke-miterlimit:4;stroke-dasharray:none" />
    </g>
  </g>
  <g
     stroke-linecap="round"
     id="g208"
     style="fill:#d7d7d7;fill-opacity:1;stroke:#ffffff;stroke-opacity:1;stroke-width:2.2;stroke-miterlimit:4;stroke-dasharray:none">
    <g
       transform="translate(430 650) rotate(0 40 0)"
       id="g206"
       style="fill:#d7d7d7;fill-opacity:1;stroke:#ffffff;stroke-opacity:1;stroke-width:2.2;stroke-miterlimit:4;stroke-dasharray:none">
      <path
         d="M 0,0 C 26.666667,0 53.333333,0 80,0 M 0,0 c 26.666667,0 53.333333,0 80,0"
         stroke="#000000"
         stroke-width="1"
         fill="none"
         id="path204"
         style="fill:#d7d7d7;fill-opacity:1;stroke:#ffffff;stroke-opacity:1;stroke-width:2.2;stroke-miterlimit:4;stroke-dasharray:none" />
    </g>
  </g>
  <g
     stroke-linecap="round"
     id="g214"
     style="fill:#d7d7d7;fill-opacity:1;stroke:#ffffff;stroke-opacity:1;stroke-width:2.2;stroke-miterlimit:4;stroke-dasharray:none">
    <g
       transform="translate(470 730) rotate(0 20 0)"
       id="g212"
       style="fill:#d7d7d7;fill-opacity:1;stroke:#ffffff;stroke-opacity:1;stroke-width:2.2;stroke-miterlimit:4;stroke-dasharray:none">
      <path
         d="M 0,0 C 13.333333,0 26.666667,0 40,0 M 0,0 c 13.333333,0 26.666667,0 40,0"
         stroke="#000000"
         stroke-width="1"
         fill="none"
         id="path210"
         style="fill:#d7d7d7;fill-opacity:1;stroke:#ffffff;stroke-opacity:1;stroke-width:2.2;stroke-miterlimit:4;stroke-dasharray:none" />
    </g>
  </g>
  <g
     stroke-linecap="round"
     id="g220"
     style="fill:#d7d7d7;fill-opacity:1;stroke:#ffffff;stroke-opacity:1;stroke-width:2.2;stroke-miterlimit:4;stroke-dasharray:none">
    <g
       transform="translate(470 810) rotate(0 20 0)"
       id="g218"
       style="fill:#d7d7d7;fill-opacity:1;stroke:#ffffff;stroke-opacity:1;stroke-width:2.2;stroke-miterlimit:4;stroke-dasharray:none">
      <path
         d="M 0,0 C 13.333333,0 26.666667,0 40,0 M 0,0 c 13.333333,0 26.666667,0 40,0"
         stroke="#000000"
         stroke-width="1"
         fill="none"
         id="path216"
         style="fill:#d7d7d7;fill-opacity:1;stroke:#ffffff;stroke-opacity:1;stroke-width:2.2;stroke-miterlimit:4;stroke-dasharray:none" />
    </g>
  </g>
  <g
     stroke-linecap="round"
     id="g232"
     style="fill:#d7d7d7;fill-opacity:1;stroke:#ffffff;stroke-opacity:1;stroke-width:2.2;stroke-miterlimit:4;stroke-dasharray:none">
    <g
       transform="translate(671 310) rotate(0 19.5 170.00000000000006)"
       id="g224"
       style="fill:#d7d7d7;fill-opacity:1;stroke:#ffffff;stroke-opacity:1;stroke-width:2.2;stroke-miterlimit:4;stroke-dasharray:none">
      <path
         d="M 0,0 C 13,0 26,0 39,0 M 0,0 c 13,0 26,0 39,0 m 0,0 c 0,113.33333 0,226.66667 0,340 M 39,0 c 0,113.33333 0,226.66667 0,340 m 0,0 c -13,0 -26,0 -39,0 m 39,0 c -13,0 -26,0 -39,0"
         stroke="#000000"
         stroke-width="1"
         fill="none"
         id="path222"
         style="fill:#d7d7d7;fill-opacity:1;stroke:#ffffff;stroke-opacity:1;stroke-width:2.2;stroke-miterlimit:4;stroke-dasharray:none" />
    </g>
    <g
       transform="translate(671 310) rotate(0 19.5 170.00000000000006)"
       id="g230"
       style="fill:#d7d7d7;fill-opacity:1;stroke:#ffffff;stroke-opacity:1;stroke-width:2.2;stroke-miterlimit:4;stroke-dasharray:none">
      <path
         d="M 0,340 5.56125,337.4075 13.59,333.66 M 0,340 6.13875,337.1375 13.59,333.66 m 0,0 c 0,4.22667 0,8.45333 0,12.68 m 0,-12.68 c 0,4.22667 0,8.45333 0,12.68 m 0,0 L 6.37875,342.975 0,340 M 13.59,346.34 6.7125,343.12875 0,340"
         stroke="#000000"
         stroke-width="1"
         fill="none"
         id="path228"
         style="fill:#d7d7d7;fill-opacity:1;stroke:#ffffff;stroke-opacity:1;stroke-width:2.2;stroke-miterlimit:4;stroke-dasharray:none" />
    </g>
  </g>
  <g
     stroke-linecap="round"
     id="g244"
     style="fill:#d7d7d7;fill-opacity:1;stroke:#ffffff;stroke-opacity:1;stroke-width:2.2;stroke-miterlimit:4;stroke-dasharray:none">
    <g
       transform="translate(671 390) rotate(0 39.5 170.00000000000006)"
       id="g236"
       style="fill:#d7d7d7;fill-opacity:1;stroke:#ffffff;stroke-opacity:1;stroke-width:2.2;stroke-miterlimit:4;stroke-dasharray:none">
      <path
         d="M 0,0 C 26.333333,0 52.666667,0 79,0 M 0,0 c 26.333333,0 52.666667,0 79,0 m 0,0 c 0,113.33333 0,226.66667 0,340 M 79,0 c 0,113.33333 0,226.66667 0,340 m 0,0 c -26.333333,0 -52.666667,0 -79,0 m 79,0 c -26.333333,0 -52.666667,0 -79,0"
         stroke="#000000"
         stroke-width="1"
         fill="none"
         id="path234"
         style="fill:#d7d7d7;fill-opacity:1;stroke:#ffffff;stroke-opacity:1;stroke-width:2.2;stroke-miterlimit:4;stroke-dasharray:none" />
    </g>
    <g
       transform="translate(671 390) rotate(0 39.5 170.00000000000006)"
       id="g242"
       style="fill:#d7d7d7;fill-opacity:1;stroke:#ffffff;stroke-opacity:1;stroke-width:2.2;stroke-miterlimit:4;stroke-dasharray:none">
      <path
         d="M 0,340 5.76375,337.31375 13.59,333.66 M 0,340 6.2025,337.1075 13.59,333.66 m 0,0 c 0,4.22667 0,8.45333 0,12.68 m 0,-12.68 c 0,4.22667 0,8.45333 0,12.68 m 0,0 L 7.83,343.65 0,340 M 13.59,346.34 8.06625,343.75875 0,340"
         stroke="#000000"
         stroke-width="1"
         fill="none"
         id="path240"
         style="fill:#d7d7d7;fill-opacity:1;stroke:#ffffff;stroke-opacity:1;stroke-width:2.2;stroke-miterlimit:4;stroke-dasharray:none" />
    </g>
  </g>
  <g
     stroke-linecap="round"
     id="g256"
     style="fill:#d7d7d7;fill-opacity:1;stroke:#ffffff;stroke-opacity:1;stroke-width:2.2;stroke-miterlimit:4;stroke-dasharray:none">
    <g
       transform="translate(670 470) rotate(0 60 170.00000000000006)"
       id="g248"
       style="fill:#d7d7d7;fill-opacity:1;stroke:#ffffff;stroke-opacity:1;stroke-width:2.2;stroke-miterlimit:4;stroke-dasharray:none">
      <path
         d="M 0,0 C 40,0 80,0 120,0 M 0,0 c 40,0 80,0 120,0 m 0,0 c 0,113.33333 0,226.66667 0,340 M 120,0 c 0,113.33333 0,226.66667 0,340 m 0,0 c -40,0 -80,0 -120,0 m 120,0 c -40,0 -80,0 -120,0"
         stroke="#000000"
         stroke-width="2"
         fill="none"
         id="path246"
         style="fill:#d7d7d7;fill-opacity:1;stroke:#ffffff;stroke-opacity:1;stroke-width:2.2;stroke-miterlimit:4;stroke-dasharray:none" />
    </g>
    <g
       transform="translate(670 470) rotate(0 60 170.00000000000006)"
       id="g254"
       style="fill:#d7d7d7;fill-opacity:1;stroke:#ffffff;stroke-opacity:1;stroke-width:2.2;stroke-miterlimit:4;stroke-dasharray:none">
      <path
         d="M 0,340 6.58125,336.93125 13.59,333.66 M 0,340 6.33375,337.0475 13.59,333.66 m 0,0 c 0,4.22667 0,8.45333 0,12.68 m 0,-12.68 c 0,4.22667 0,8.45333 0,12.68 m 0,0 L 7.9725,343.7175 0,340 M 13.59,346.34 7.4775,343.48875 0,340"
         stroke="#000000"
         stroke-width="2"
         fill="none"
         id="path252"
         style="fill:#d7d7d7;fill-opacity:1;stroke:#ffffff;stroke-opacity:1;stroke-width:2.2;stroke-miterlimit:4;stroke-dasharray:none" />
    </g>
  </g>
</svg>
